<?xml version="1.0" encoding="UTF-8" standalone="no"?>
<svg width="701px" height="181px" viewBox="0 0 701 181" version="1.1" xmlns="http://www.w3.org/2000/svg" xmlns:xlink="http://www.w3.org/1999/xlink" xmlns:sketch="http://www.bohemiancoding.com/sketch/ns">
    <!-- Generator: Sketch 3.5.2 (25235) - http://www.bohemiancoding.com/sketch -->
    <title>Group 7</title>
    <desc>Created with Sketch.</desc>
    <defs></defs>
    <g id="Page-1" stroke="none" stroke-width="1" fill="none" fill-rule="evenodd" sketch:type="MSPage">
        <g id="Group-7" sketch:type="MSLayerGroup" fill="#FFFFFF">
            <path d="M213,54.822 L213,41.123 L282.426,41.123 L282.426,54.822 L257.156,54.822 L257.156,137.814 L238.27,137.814 L238.27,54.822 L213,54.822 Z M328.961,95.653 C329.227001,93.6136565 329.138336,91.6630093 328.695,89.801 C328.251664,87.9389907 327.520172,86.2986738 326.5005,84.88 C325.480828,83.4613262 324.195174,82.3308375 322.6435,81.4885 C321.091826,80.6461625 319.296344,80.225 317.257,80.225 C315.394991,80.225 313.555176,80.623996 311.7375,81.422 C309.919824,82.220004 308.257341,83.4834914 306.75,85.2125 C305.242659,86.9415086 304.023505,89.1581531 303.0925,91.8625 C302.161495,94.5668469 301.696,97.8253143 301.696,101.638 C301.696,109.352039 303.424983,115.314812 306.883,119.5265 C310.341017,123.738188 314.862972,125.844 320.449,125.844 C323.552349,125.844 326.589152,125.46717 329.5595,124.7135 C332.529848,123.95983 335.965647,122.696342 339.867,120.923 L344.522,133.292 C339.733976,135.597345 335.234188,137.215495 331.0225,138.1465 C326.810812,139.077505 322.621354,139.543 318.454,139.543 C312.335969,139.543 307.082522,138.434678 302.6935,136.218 C298.304478,134.001322 294.669181,131.141851 291.7875,127.6395 C288.905819,124.137149 286.77784,120.169356 285.4035,115.736 C284.02916,111.302645 283.342,106.825023 283.342,102.303 C283.342,96.8056392 284.250824,91.8846884 286.0685,87.54 C287.886176,83.1953116 290.368818,79.5378482 293.5165,76.5675 C296.664182,73.5971518 300.365979,71.314008 304.622,69.718 C308.878021,68.121992 313.399976,67.324 318.188,67.324 C323.064691,67.324 327.542313,68.2993236 331.621,70.25 C335.699687,72.2006764 338.980321,74.9049827 341.463,78.363 C343.945679,81.8210173 345.475164,85.9661425 346.0515,90.7985 C346.627836,95.6308575 345.940676,100.884305 343.99,106.559 L306.75,106.559 C307.725338,103.455651 309.121824,100.862177 310.9395,98.7785 C312.757176,96.6948229 314.818655,95.653 317.124,95.653 L328.961,95.653 Z M374.831,137.814 L356.344,137.814 L356.344,37 L374.831,37 L374.831,137.814 Z M429.479,95.653 C429.745001,93.6136565 429.656336,91.6630093 429.213,89.801 C428.769664,87.9389907 428.038172,86.2986738 427.0185,84.88 C425.998828,83.4613262 424.713174,82.3308375 423.1615,81.4885 C421.609826,80.6461625 419.814344,80.225 417.775,80.225 C415.912991,80.225 414.073176,80.623996 412.2555,81.422 C410.437824,82.220004 408.775341,83.4834914 407.268,85.2125 C405.760659,86.9415086 404.541505,89.1581531 403.6105,91.8625 C402.679495,94.5668469 402.214,97.8253143 402.214,101.638 C402.214,109.352039 403.942983,115.314812 407.401,119.5265 C410.859017,123.738188 415.380972,125.844 420.967,125.844 C424.070349,125.844 427.107152,125.46717 430.0775,124.7135 C433.047848,123.95983 436.483647,122.696342 440.385,120.923 L445.04,133.292 C440.251976,135.597345 435.752188,137.215495 431.5405,138.1465 C427.328812,139.077505 423.139354,139.543 418.972,139.543 C412.853969,139.543 407.600522,138.434678 403.2115,136.218 C398.822478,134.001322 395.187181,131.141851 392.3055,127.6395 C389.423819,124.137149 387.29584,120.169356 385.9215,115.736 C384.54716,111.302645 383.86,106.825023 383.86,102.303 C383.86,96.8056392 384.768824,91.8846884 386.5865,87.54 C388.404176,83.1953116 390.886818,79.5378482 394.0345,76.5675 C397.182182,73.5971518 400.883979,71.314008 405.14,69.718 C409.396021,68.121992 413.917976,67.324 418.706,67.324 C423.582691,67.324 428.060313,68.2993236 432.139,70.25 C436.217687,72.2006764 439.498321,74.9049827 441.981,78.363 C444.463679,81.8210173 445.993164,85.9661425 446.5695,90.7985 C447.145836,95.6308575 446.458676,100.884305 444.508,106.559 L407.268,106.559 C408.243338,103.455651 409.639824,100.862177 411.4575,98.7785 C413.275176,96.6948229 415.336655,95.653 417.642,95.653 L429.479,95.653 Z M493.836,67.324 C498.624024,67.324 502.902148,68.2549907 506.6705,70.117 C510.438852,71.9790093 513.63082,74.5281505 516.2465,77.7645 C518.86218,81.0008495 520.85716,84.8578109 522.2315,89.3355 C523.60584,93.8131891 524.293,98.6676405 524.293,103.899 C524.293,108.598357 523.495008,113.075979 521.899,117.332 C520.302992,121.588021 518.152847,125.311984 515.4485,128.504 C512.744153,131.696016 509.618684,134.245157 506.072,136.1515 C502.525316,138.057843 498.845686,139.011 495.033,139.011 C492.727655,139.011 490.488844,138.855835 488.3165,138.5455 C486.144156,138.235165 483.329017,137.592338 479.871,136.617 C481.11234,133.513651 482.508826,131.008843 484.0605,129.1025 C485.612174,127.196157 487.496322,126.154334 489.713,125.977 C495.210361,125.622332 499.067322,123.427854 501.284,119.3935 C503.500678,115.359146 504.609,110.194365 504.609,103.899 C504.609,100.795651 504.276503,97.8696804 503.6115,95.121 C502.946497,92.3723196 502.015506,89.9561771 500.8185,87.8725 C499.621494,85.7888229 498.158509,84.1263395 496.4295,82.885 C494.700491,81.6436605 492.727678,81.023 490.511,81.023 C485.545642,81.023 480.403027,84.1263023 475.083,90.333 L475.083,169.867 L456.596,169.867 L456.596,85.811 C456.596,83.3283209 456.440835,80.690514 456.1305,77.8975 C455.820165,75.104486 455.310337,72.1563489 454.601,69.053 L468.832,69.053 C469.984672,69.7623369 470.959996,70.7376605 471.758,71.979 C472.556004,73.2203395 473.220997,74.5059934 473.753,75.836 L474.152,78.496 L476.147,75.836 C479.693684,72.5553169 482.863486,70.316506 485.6565,69.1195 C488.449514,67.922494 491.175987,67.324 493.836,67.324 L493.836,67.324 Z M599.29,103.367 C599.29,109.041695 598.248177,114.117811 596.1645,118.5955 C594.080823,123.073189 591.376517,126.863651 588.0515,129.967 C584.726483,133.070349 580.913855,135.442158 576.6135,137.0825 C572.313145,138.722842 567.990688,139.543 563.646,139.543 C558.946643,139.543 554.446855,138.745008 550.1465,137.149 C545.846145,135.552992 542.055683,133.225515 538.775,130.1665 C535.494317,127.107485 532.878676,123.317023 530.928,118.795 C528.977324,114.272977 528.002,109.130362 528.002,103.367 C528.002,97.1603023 529.132489,91.7738562 531.3935,87.2075 C533.654511,82.6411438 536.536149,78.8950146 540.0385,75.969 C543.540851,73.0429854 547.397812,70.8706738 551.6095,69.452 C555.821188,68.0333262 559.833314,67.324 563.646,67.324 C568.966027,67.324 573.798312,68.2106578 578.143,69.984 C582.487688,71.7573422 586.233818,74.239984 589.3815,77.432 C592.529182,80.624016 594.967491,84.4144781 596.6965,88.8035 C598.425509,93.1925219 599.29,98.0469734 599.29,103.367 L599.29,103.367 Z M563.646,125.977 C566.217346,125.977 568.50049,125.378506 570.4955,124.1815 C572.49051,122.984494 574.152993,121.366344 575.483,119.327 C576.813007,117.287656 577.810497,114.89368 578.4755,112.145 C579.140503,109.39632 579.473,106.470349 579.473,103.367 C579.473,100.263651 579.140503,97.3598469 578.4755,94.6555 C577.810497,91.9511531 576.813007,89.5793435 575.483,87.54 C574.152993,85.5006565 572.49051,83.882506 570.4955,82.6855 C568.50049,81.488494 566.217346,80.89 563.646,80.89 C561.074654,80.89 558.79151,81.488494 556.7965,82.6855 C554.80149,83.882506 553.139007,85.5006565 551.809,87.54 C550.478993,89.5793435 549.459337,91.9511531 548.75,94.6555 C548.040663,97.3598469 547.686,100.263651 547.686,103.367 C547.686,106.73635 548.06283,109.79532 548.8165,112.544 C549.57017,115.29268 550.63416,117.66449 552.0085,119.6595 C553.38284,121.65451 555.06749,123.206161 557.0625,124.3145 C559.05751,125.422839 561.251988,125.977 563.646,125.977 L563.646,125.977 Z M619.358,69.053 C620.067337,69.6736698 620.843162,70.8928242 621.6855,72.7105 C622.527838,74.5281758 623.126332,76.5896551 623.481,78.895 L623.747,82.087 L625.077,78.895 C626.850342,75.3483156 629.177819,72.5996764 632.0595,70.649 C634.941181,68.6983236 637.800652,67.723 640.638,67.723 C643.209346,67.723 646.090984,68.2549947 649.283,69.319 L647.155,84.348 C645.381658,83.8159973 643.896506,83.4613342 642.6995,83.284 C641.502494,83.1066658 640.372005,83.018 639.308,83.018 C637.002655,83.018 634.963342,83.5943276 633.19,84.747 C631.416658,85.8996724 629.90934,87.47349 628.668,89.4685 C627.42666,91.46351 626.473503,93.857486 625.8085,96.6505 C625.143497,99.443514 624.811,102.480317 624.811,105.761 L624.811,137.814 L607.388,137.814 L607.388,85.811 C607.388,83.3283209 607.232835,80.690514 606.9225,77.8975 C606.612165,75.104486 606.058004,72.1563489 605.26,69.053 L619.358,69.053 Z M658.445,82.22 L647.406,82.22 L647.406,71.713 L658.445,69.053 L658.445,52.694 L676.001,46.975 L676.001,111.48 C676.001,116.002023 676.954157,119.526487 678.8605,122.0535 C680.766843,124.580513 683.271651,125.844 686.375,125.844 C687.61634,125.844 689.057158,125.711001 690.6975,125.445 C692.337842,125.178999 694.310655,124.647004 696.616,123.849 L700.473,135.952 C697.10365,137.104672 694.155513,137.99133 691.6285,138.612 C689.101487,139.23267 686.729678,139.543 684.513,139.543 C676.000957,139.543 669.528355,137.149024 665.095,132.361 C660.661645,127.572976 658.445,120.612712 658.445,111.48 L658.445,82.22 Z M693.823,82.22 C691.872324,82.22 690.165507,81.7988375 688.7025,80.9565 C687.239493,80.1141625 685.976005,79.0723395 684.912,77.831 C683.847995,76.5896605 682.961337,75.1931744 682.252,73.6415 C681.542663,72.0898256 680.966336,70.5603409 680.523,69.053 L699.808,69.053 L699.808,82.22 L693.823,82.22 Z" id="Teleport" sketch:type="MSShapeGroup"></path>
            <g id="Group-9" sketch:type="MSShapeGroup">
                <path d="M20,70 L107.230003,70 L107.230003,180.077212 L23.0026542,180.077212 C21.3443341,180.077212 20,178.725142 20,177.075823 L20,70 Z" id="Rectangle-path"></path>
                <rect id="Rectangle-path" x="118" y="70" width="33.7686683" height="110.077212" rx="3"></rect>
                <rect id="Rectangle-path" x="0" y="0" width="135" height="58.3199519" rx="3"></rect>
                <path d="M145,0 L170.237427,0 C171.891295,0 173.232019,1.34167565 173.232019,2.99246977 L173.232019,55.3274821 C173.232019,56.9801776 171.889323,58.3199519 170.237427,58.3199519 L145,58.3199519 L145,0 Z" id="Rectangle-path"></path>
            </g>
        </g>
    </g>
</svg>